<svg xmlns="http://www.w3.org/2000/svg" style="enable-background:new 0 0 1024 1024" id="svg897" x="0" y="0" version="1.1" viewBox="0 0 1024 1024" xml:space="preserve"><metadata id="metadata903"/><style id="style879" type="text/css">.st0{fill:#3fa9f5}</style><g id="Layer_1" style="fill:#00b8d4;fill-opacity:1"><rect id="rect881" width="1024" height="1024" x="0" y="0" class="st0" style="fill:#00b8d4;fill-opacity:1"/></g><g id="Layer_2"><path style="fill:#fff;stroke-width:.92144144" id="path884" d="m 214.33844,303.59278 c -54.42954,0 -98.55824,44.1287 -98.55824,98.55824 v 625.73078 c 0,54.4295 44.1287,98.5582 98.55824,98.5582 h 595.32312 c 54.42955,0 98.55824,-44.1287 98.55824,-98.5582 V 402.15102 c 0,-54.42954 -44.12869,-98.55824 -98.55824,-98.55824 z m 301.79905,129.37074 260.63835,236.09056 c 0,0 -15.71109,30.24171 -57.64589,0 L 516.13749,487.03341 299.63476,670.19689 c -36.23108,30.6195 -52.84431,0 -52.84431,0 z m 145.8541,53.63617 H 714.2006 V 594.0304 l -51.99664,-44.10861 z m -147.48462,34.92299 184.30628,163.93378 v 201.81366 c 0,0 0.66279,14.75207 -14.02498,14.75207 h -130.7709 l 0.23937,-109.11702 c 0,0 1.27195,-18.0419 -19.44206,-18.0419 h -55.43406 c -17.5166,0 -15.63571,18.0419 -15.63571,18.0419 l -0.19437,109.46796 c 0,0 -119.19809,0.15657 -133.59101,0.15657 -11.5733,0 -11.10229,-11.84917 -11.10229,-11.84917 V 685.45646 Z"/></g></svg>